<?xml version="1.0" encoding="iso-8859-1"?>
<!-- Generator: Adobe Illustrator 18.0.0, SVG Export Plug-In . SVG Version: 6.00 Build 0)  -->
<!DOCTYPE svg PUBLIC "-//W3C//DTD SVG 1.1//EN" "http://www.w3.org/Graphics/SVG/1.1/DTD/svg11.dtd">
<svg version="1.1" id="Capa_1" xmlns="http://www.w3.org/2000/svg" xmlns:xlink="http://www.w3.org/1999/xlink" x="0px" y="0px"
	 viewBox="0 0 474.517 474.517" style="enable-background:new 0 0 474.517 474.517;" xml:space="preserve">
<path d="M319.703,300.099h-57.507v-32.341c62.597-11.747,110.142-66.72,110.142-132.678C372.338,60.599,311.739,0,237.259,0
	c-74.479,0-135.08,60.599-135.08,135.08c0,65.957,47.546,120.931,110.142,132.678v32.341h-57.505
	c-13.777,0-24.938,11.162-24.938,24.938c0,13.776,11.16,24.938,24.938,24.938h57.505v99.605c0,13.775,11.163,24.938,24.938,24.938
	c13.777,0,24.938-11.162,24.938-24.938v-99.605h57.507c13.775,0,24.938-11.162,24.938-24.938
	C344.64,311.261,333.478,300.099,319.703,300.099z M152.054,135.08c0-46.986,38.22-85.204,85.205-85.204
	c46.986,0,85.204,38.218,85.204,85.204c0,46.986-38.218,85.205-85.204,85.205C190.274,220.284,152.054,182.066,152.054,135.08z"/>
<g>
</g>
<g>
</g>
<g>
</g>
<g>
</g>
<g>
</g>
<g>
</g>
<g>
</g>
<g>
</g>
<g>
</g>
<g>
</g>
<g>
</g>
<g>
</g>
<g>
</g>
<g>
</g>
<g>
</g>
</svg>
